# xmcd
#
# Track frame offsets: 
#        150
#        25010
#        38672
#        58097
#        83075
#        99322
#        126652
#        143152
#        159055
#        188760
#
# Disc length: 2814 seconds
#
# Revision: 1
# Processed by: cddbd v1.5.2PL0 Copyright (c) Steve Scherf et al.
# Submitted via: ExactAudioCopy v0.99pb4
#
DISCID=770afc0a
DTITLE=Kevin Coyne - Matching Head And Feet
DYEAR=1975
DGENRE=Blues
TTITLE0=Saviour
TTITLE1=Lucy
TTITLE2=Lonely Lovers
TTITLE3=Sunday Morning Sunrise
TTITLE4=Rock `N Roll Hymn
TTITLE5=Mrs. Hooley Go Home
TTITLE6=It`s Not Me
TTITLE7=Turpentine
TTITLE8=Tulip
TTITLE9=One Fine Day
EXTD=YEAR: 1975
EXTT0=
EXTT1=
EXTT2=
EXTT3=
EXTT4=
EXTT5=
EXTT6=
EXTT7=
EXTT8=
EXTT9=
PLAYORDER=
